# xmcd CD database file
#
# Track frame offsets:
#	150
#	18175
#	37492
#	58960
#	78037
#	101310
#	119332
#	137380
#	161050
#	185367
#	199467
#	220117
#	241567
#	262667
#	286067
#
# Disc length: 4136 seconds
#
# Revision: 2
# Processed by: cddbd v1.5.1PL0 Copyright (c) Steve Scherf et al.
# Submitted via: CDex 1.51
#
DISCID=c510260f
DTITLE=Various Artist - R&B Groove Gold UI Edition
DYEAR=2001
DGENRE=R&B
TTITLE0=Lighter Shade Of Brown/Hey DJ
TTITLE1=Teddy Riley Featuring Tammy Lucas/Is It Good To You
TTITLE2=GUY/Wanna Get With U
TTITLE3=Boyz II Men/Thank You
TTITLE4=Wreckx-N-Effect/Rump Shaker
TTITLE5=Young Black Teenagers/Tap The Bottle
TTITLE6=Eric B. and Rakim/Juice(Know The Ledge)
TTITLE7=Blackstreet/No Diggity
TTITLE8=Aaron Hall/Don't Be Afraid
TTITLE9=Father M.C./I'll Do 4 U
TTITLE10=Soul For Real/Candy Rain
TTITLE11=Christopher Williams/Every Little Thing U Do
TTITLE12=Ralph Tresvant/Sensitivity
TTITLE13=Iv Xample/(I'd Rather) Be Alone
TTITLE14=Johnny Gill/My, My, My
EXTD=YEAR: 2001
EXTT0=
EXTT1=
EXTT2=
EXTT3=
EXTT4=
EXTT5=
EXTT6=
EXTT7=
EXTT8=
EXTT9=
EXTT10=
EXTT11=
EXTT12=
EXTT13=
EXTT14=
PLAYORDER=
